<svg width="320" height="76" viewBox="0 0 320 76" fill="none" xmlns="http://www.w3.org/2000/svg">
<mask id="path-1-outside-1_6_82" maskUnits="userSpaceOnUse" x="16" y="19" width="287" height="47" fill="black">
<rect fill="white" x="16" y="19" width="287" height="47"/>
<path d="M28.7021 55V24.9H17.9521V20H44.8521V24.9H34.1021V55H28.7021ZM57.8627 55.7C55.3627 55.7 53.1794 55.1833 51.3127 54.15C49.446 53.0833 47.9794 51.6 46.9127 49.7C45.8794 47.7667 45.3627 45.5333 45.3627 43V42.4C45.3627 39.8333 45.8794 37.6 46.9127 35.7C47.946 33.7667 49.3794 32.2833 51.2127 31.25C53.0794 30.1833 55.2294 29.65 57.6627 29.65C60.0294 29.65 62.096 30.1833 63.8627 31.25C65.6627 32.2833 67.0627 33.7333 68.0627 35.6C69.0627 37.4667 69.5627 39.65 69.5627 42.15V44.1H50.6127C50.6794 46.2667 51.396 48 52.7627 49.3C54.1627 50.5667 55.896 51.2 57.9627 51.2C59.896 51.2 61.346 50.7667 62.3127 49.9C63.3127 49.0333 64.0794 48.0333 64.6127 46.9L68.8627 49.1C68.396 50.0333 67.7127 51.0167 66.8127 52.05C65.946 53.0833 64.796 53.95 63.3627 54.65C61.9294 55.35 60.096 55.7 57.8627 55.7ZM50.6627 40.15H64.3127C64.1794 38.2833 63.5127 36.8333 62.3127 35.8C61.1127 34.7333 59.546 34.2 57.6127 34.2C55.6794 34.2 54.096 34.7333 52.8627 35.8C51.6627 36.8333 50.9294 38.2833 50.6627 40.15ZM88.7119 55.7C86.3452 55.7 84.1952 55.2 82.2619 54.2C80.3619 53.2 78.8452 51.75 77.7119 49.85C76.6119 47.95 76.0619 45.6667 76.0619 43V42.35C76.0619 39.6833 76.6119 37.4167 77.7119 35.55C78.8452 33.65 80.3619 32.2 82.2619 31.2C84.1952 30.1667 86.3452 29.65 88.7119 29.65C91.0786 29.65 93.0952 30.0833 94.7619 30.95C96.4286 31.8167 97.7619 32.9667 98.7619 34.4C99.7952 35.8333 100.462 37.4167 100.762 39.15L95.7619 40.2C95.5952 39.1 95.2452 38.1 94.7119 37.2C94.1786 36.3 93.4286 35.5833 92.4619 35.05C91.4952 34.5167 90.2786 34.25 88.8119 34.25C87.3786 34.25 86.0786 34.5833 84.9119 35.25C83.7786 35.8833 82.8786 36.8167 82.2119 38.05C81.5452 39.25 81.2119 40.7167 81.2119 42.45V42.9C81.2119 44.6333 81.5452 46.1167 82.2119 47.35C82.8786 48.5833 83.7786 49.5167 84.9119 50.15C86.0786 50.7833 87.3786 51.1 88.8119 51.1C90.9786 51.1 92.6286 50.55 93.7619 49.45C94.8952 48.3167 95.6119 46.8833 95.9119 45.15L100.912 46.3C100.512 48 99.7952 49.5667 98.7619 51C97.7619 52.4333 96.4286 53.5833 94.7619 54.45C93.0952 55.2833 91.0786 55.7 88.7119 55.7ZM108.352 55V20H113.502V33.85H114.302C114.635 33.2167 115.102 32.6 115.702 32C116.335 31.4 117.152 30.9167 118.152 30.55C119.185 30.15 120.485 29.95 122.052 29.95C123.918 29.95 125.568 30.3667 127.002 31.2C128.468 32.0333 129.618 33.2167 130.452 34.75C131.285 36.25 131.702 38.0667 131.702 40.2V55H126.552V40.6C126.552 38.4667 126.018 36.9 124.952 35.9C123.885 34.8667 122.418 34.35 120.552 34.35C118.418 34.35 116.702 35.05 115.402 36.45C114.135 37.85 113.502 39.8833 113.502 42.55V55H108.352ZM151.473 55L161.473 20H170.973L180.923 55H175.373L173.073 46.75H159.373L157.073 55H151.473ZM160.723 41.75H171.723L166.623 23.35H165.823L160.723 41.75ZM201.565 55.7C199.165 55.7 197.315 55.2667 196.015 54.4C194.748 53.5333 193.798 52.5667 193.165 51.5H192.365V55H187.315V20H192.465V33.7H193.265C193.665 33.0333 194.198 32.4 194.865 31.8C195.531 31.1667 196.415 30.65 197.515 30.25C198.615 29.85 199.965 29.65 201.565 29.65C203.631 29.65 205.531 30.15 207.265 31.15C208.998 32.15 210.381 33.6 211.415 35.5C212.448 37.4 212.965 39.6667 212.965 42.3V43.05C212.965 45.7167 212.431 48 211.365 49.9C210.331 51.7667 208.948 53.2 207.215 54.2C205.515 55.2 203.631 55.7 201.565 55.7ZM200.065 51.2C202.298 51.2 204.131 50.4833 205.565 49.05C207.031 47.6167 207.765 45.5667 207.765 42.9V42.45C207.765 39.8167 207.048 37.7833 205.615 36.35C204.181 34.9167 202.331 34.2 200.065 34.2C197.865 34.2 196.031 34.9167 194.565 36.35C193.131 37.7833 192.415 39.8167 192.415 42.45V42.9C192.415 45.5667 193.131 47.6167 194.565 49.05C196.031 50.4833 197.865 51.2 200.065 51.2ZM223.696 65V60.5H237.446C238.379 60.5 238.846 60 238.846 59V51.4H238.046C237.746 52.0667 237.279 52.7167 236.646 53.35C236.046 53.95 235.229 54.45 234.196 54.85C233.163 55.25 231.863 55.45 230.296 55.45C228.429 55.45 226.763 55.0333 225.296 54.2C223.829 53.3667 222.679 52.1833 221.846 50.65C221.013 49.1167 220.596 47.3 220.596 45.2V30.35H225.746V44.8C225.746 46.9333 226.279 48.5167 227.346 49.55C228.413 50.55 229.896 51.05 231.796 51.05C233.896 51.05 235.579 50.35 236.846 48.95C238.146 47.55 238.796 45.5167 238.796 42.85V30.35H243.946V60.05C243.946 61.55 243.496 62.75 242.596 63.65C241.729 64.55 240.529 65 238.996 65H223.696ZM263.159 55.7C260.025 55.7 257.425 55 255.359 53.6C253.292 52.2 252.025 50.0833 251.559 47.25L256.359 46.1C256.625 47.4667 257.075 48.55 257.709 49.35C258.342 50.15 259.125 50.7167 260.059 51.05C261.025 51.3833 262.059 51.55 263.159 51.55C264.792 51.55 266.042 51.2333 266.909 50.6C267.809 49.9667 268.259 49.15 268.259 48.15C268.259 47.15 267.842 46.4167 267.009 45.95C266.175 45.4833 264.942 45.1 263.309 44.8L261.609 44.5C259.942 44.2 258.425 43.7667 257.059 43.2C255.692 42.6333 254.609 41.85 253.809 40.85C253.009 39.85 252.609 38.5667 252.609 37C252.609 34.6667 253.475 32.8667 255.209 31.6C256.942 30.3 259.242 29.65 262.109 29.65C264.875 29.65 267.142 30.2833 268.909 31.55C270.709 32.7833 271.875 34.4667 272.409 36.6L267.609 37.95C267.309 36.45 266.675 35.4 265.709 34.8C264.742 34.1667 263.542 33.85 262.109 33.85C260.709 33.85 259.609 34.1167 258.809 34.65C258.009 35.15 257.609 35.8667 257.609 36.8C257.609 37.8 257.992 38.5333 258.759 39C259.559 39.4667 260.625 39.8167 261.959 40.05L263.709 40.35C265.475 40.65 267.092 41.0667 268.559 41.6C270.025 42.1333 271.175 42.9 272.009 43.9C272.875 44.9 273.309 46.2333 273.309 47.9C273.309 50.3667 272.392 52.2833 270.559 53.65C268.725 55.0167 266.259 55.7 263.159 55.7ZM290.928 55.7C287.795 55.7 285.195 55 283.128 53.6C281.062 52.2 279.795 50.0833 279.328 47.25L284.128 46.1C284.395 47.4667 284.845 48.55 285.478 49.35C286.112 50.15 286.895 50.7167 287.828 51.05C288.795 51.3833 289.828 51.55 290.928 51.55C292.562 51.55 293.812 51.2333 294.678 50.6C295.578 49.9667 296.028 49.15 296.028 48.15C296.028 47.15 295.612 46.4167 294.778 45.95C293.945 45.4833 292.712 45.1 291.078 44.8L289.378 44.5C287.712 44.2 286.195 43.7667 284.828 43.2C283.462 42.6333 282.378 41.85 281.578 40.85C280.778 39.85 280.378 38.5667 280.378 37C280.378 34.6667 281.245 32.8667 282.978 31.6C284.712 30.3 287.012 29.65 289.878 29.65C292.645 29.65 294.912 30.2833 296.678 31.55C298.478 32.7833 299.645 34.4667 300.178 36.6L295.378 37.95C295.078 36.45 294.445 35.4 293.478 34.8C292.512 34.1667 291.312 33.85 289.878 33.85C288.478 33.85 287.378 34.1167 286.578 34.65C285.778 35.15 285.378 35.8667 285.378 36.8C285.378 37.8 285.762 38.5333 286.528 39C287.328 39.4667 288.395 39.8167 289.728 40.05L291.478 40.35C293.245 40.65 294.862 41.0667 296.328 41.6C297.795 42.1333 298.945 42.9 299.778 43.9C300.645 44.9 301.078 46.2333 301.078 47.9C301.078 50.3667 300.162 52.2833 298.328 53.65C296.495 55.0167 294.028 55.7 290.928 55.7Z"/>
</mask>
<path d="M28.7021 55V24.9H17.9521V20H44.8521V24.9H34.1021V55H28.7021ZM57.8627 55.7C55.3627 55.7 53.1794 55.1833 51.3127 54.15C49.446 53.0833 47.9794 51.6 46.9127 49.7C45.8794 47.7667 45.3627 45.5333 45.3627 43V42.4C45.3627 39.8333 45.8794 37.6 46.9127 35.7C47.946 33.7667 49.3794 32.2833 51.2127 31.25C53.0794 30.1833 55.2294 29.65 57.6627 29.65C60.0294 29.65 62.096 30.1833 63.8627 31.25C65.6627 32.2833 67.0627 33.7333 68.0627 35.6C69.0627 37.4667 69.5627 39.65 69.5627 42.15V44.1H50.6127C50.6794 46.2667 51.396 48 52.7627 49.3C54.1627 50.5667 55.896 51.2 57.9627 51.2C59.896 51.2 61.346 50.7667 62.3127 49.9C63.3127 49.0333 64.0794 48.0333 64.6127 46.9L68.8627 49.1C68.396 50.0333 67.7127 51.0167 66.8127 52.05C65.946 53.0833 64.796 53.95 63.3627 54.65C61.9294 55.35 60.096 55.7 57.8627 55.7ZM50.6627 40.15H64.3127C64.1794 38.2833 63.5127 36.8333 62.3127 35.8C61.1127 34.7333 59.546 34.2 57.6127 34.2C55.6794 34.2 54.096 34.7333 52.8627 35.8C51.6627 36.8333 50.9294 38.2833 50.6627 40.15ZM88.7119 55.7C86.3452 55.7 84.1952 55.2 82.2619 54.2C80.3619 53.2 78.8452 51.75 77.7119 49.85C76.6119 47.95 76.0619 45.6667 76.0619 43V42.35C76.0619 39.6833 76.6119 37.4167 77.7119 35.55C78.8452 33.65 80.3619 32.2 82.2619 31.2C84.1952 30.1667 86.3452 29.65 88.7119 29.65C91.0786 29.65 93.0952 30.0833 94.7619 30.95C96.4286 31.8167 97.7619 32.9667 98.7619 34.4C99.7952 35.8333 100.462 37.4167 100.762 39.15L95.7619 40.2C95.5952 39.1 95.2452 38.1 94.7119 37.2C94.1786 36.3 93.4286 35.5833 92.4619 35.05C91.4952 34.5167 90.2786 34.25 88.8119 34.25C87.3786 34.25 86.0786 34.5833 84.9119 35.25C83.7786 35.8833 82.8786 36.8167 82.2119 38.05C81.5452 39.25 81.2119 40.7167 81.2119 42.45V42.9C81.2119 44.6333 81.5452 46.1167 82.2119 47.35C82.8786 48.5833 83.7786 49.5167 84.9119 50.15C86.0786 50.7833 87.3786 51.1 88.8119 51.1C90.9786 51.1 92.6286 50.55 93.7619 49.45C94.8952 48.3167 95.6119 46.8833 95.9119 45.15L100.912 46.3C100.512 48 99.7952 49.5667 98.7619 51C97.7619 52.4333 96.4286 53.5833 94.7619 54.45C93.0952 55.2833 91.0786 55.7 88.7119 55.7ZM108.352 55V20H113.502V33.85H114.302C114.635 33.2167 115.102 32.6 115.702 32C116.335 31.4 117.152 30.9167 118.152 30.55C119.185 30.15 120.485 29.95 122.052 29.95C123.918 29.95 125.568 30.3667 127.002 31.2C128.468 32.0333 129.618 33.2167 130.452 34.75C131.285 36.25 131.702 38.0667 131.702 40.2V55H126.552V40.6C126.552 38.4667 126.018 36.9 124.952 35.9C123.885 34.8667 122.418 34.35 120.552 34.35C118.418 34.35 116.702 35.05 115.402 36.45C114.135 37.85 113.502 39.8833 113.502 42.55V55H108.352ZM151.473 55L161.473 20H170.973L180.923 55H175.373L173.073 46.75H159.373L157.073 55H151.473ZM160.723 41.75H171.723L166.623 23.35H165.823L160.723 41.75ZM201.565 55.7C199.165 55.7 197.315 55.2667 196.015 54.4C194.748 53.5333 193.798 52.5667 193.165 51.5H192.365V55H187.315V20H192.465V33.7H193.265C193.665 33.0333 194.198 32.4 194.865 31.8C195.531 31.1667 196.415 30.65 197.515 30.25C198.615 29.85 199.965 29.65 201.565 29.65C203.631 29.65 205.531 30.15 207.265 31.15C208.998 32.15 210.381 33.6 211.415 35.5C212.448 37.4 212.965 39.6667 212.965 42.3V43.05C212.965 45.7167 212.431 48 211.365 49.9C210.331 51.7667 208.948 53.2 207.215 54.2C205.515 55.2 203.631 55.7 201.565 55.7ZM200.065 51.2C202.298 51.2 204.131 50.4833 205.565 49.05C207.031 47.6167 207.765 45.5667 207.765 42.9V42.45C207.765 39.8167 207.048 37.7833 205.615 36.35C204.181 34.9167 202.331 34.2 200.065 34.2C197.865 34.2 196.031 34.9167 194.565 36.35C193.131 37.7833 192.415 39.8167 192.415 42.45V42.9C192.415 45.5667 193.131 47.6167 194.565 49.05C196.031 50.4833 197.865 51.2 200.065 51.2ZM223.696 65V60.5H237.446C238.379 60.5 238.846 60 238.846 59V51.4H238.046C237.746 52.0667 237.279 52.7167 236.646 53.35C236.046 53.95 235.229 54.45 234.196 54.85C233.163 55.25 231.863 55.45 230.296 55.45C228.429 55.45 226.763 55.0333 225.296 54.2C223.829 53.3667 222.679 52.1833 221.846 50.65C221.013 49.1167 220.596 47.3 220.596 45.2V30.35H225.746V44.8C225.746 46.9333 226.279 48.5167 227.346 49.55C228.413 50.55 229.896 51.05 231.796 51.05C233.896 51.05 235.579 50.35 236.846 48.95C238.146 47.55 238.796 45.5167 238.796 42.85V30.35H243.946V60.05C243.946 61.55 243.496 62.75 242.596 63.65C241.729 64.55 240.529 65 238.996 65H223.696ZM263.159 55.7C260.025 55.7 257.425 55 255.359 53.6C253.292 52.2 252.025 50.0833 251.559 47.25L256.359 46.1C256.625 47.4667 257.075 48.55 257.709 49.35C258.342 50.15 259.125 50.7167 260.059 51.05C261.025 51.3833 262.059 51.55 263.159 51.55C264.792 51.55 266.042 51.2333 266.909 50.6C267.809 49.9667 268.259 49.15 268.259 48.15C268.259 47.15 267.842 46.4167 267.009 45.95C266.175 45.4833 264.942 45.1 263.309 44.8L261.609 44.5C259.942 44.2 258.425 43.7667 257.059 43.2C255.692 42.6333 254.609 41.85 253.809 40.85C253.009 39.85 252.609 38.5667 252.609 37C252.609 34.6667 253.475 32.8667 255.209 31.6C256.942 30.3 259.242 29.65 262.109 29.65C264.875 29.65 267.142 30.2833 268.909 31.55C270.709 32.7833 271.875 34.4667 272.409 36.6L267.609 37.95C267.309 36.45 266.675 35.4 265.709 34.8C264.742 34.1667 263.542 33.85 262.109 33.85C260.709 33.85 259.609 34.1167 258.809 34.65C258.009 35.15 257.609 35.8667 257.609 36.8C257.609 37.8 257.992 38.5333 258.759 39C259.559 39.4667 260.625 39.8167 261.959 40.05L263.709 40.35C265.475 40.65 267.092 41.0667 268.559 41.6C270.025 42.1333 271.175 42.9 272.009 43.9C272.875 44.9 273.309 46.2333 273.309 47.9C273.309 50.3667 272.392 52.2833 270.559 53.65C268.725 55.0167 266.259 55.7 263.159 55.7ZM290.928 55.7C287.795 55.7 285.195 55 283.128 53.6C281.062 52.2 279.795 50.0833 279.328 47.25L284.128 46.1C284.395 47.4667 284.845 48.55 285.478 49.35C286.112 50.15 286.895 50.7167 287.828 51.05C288.795 51.3833 289.828 51.55 290.928 51.55C292.562 51.55 293.812 51.2333 294.678 50.6C295.578 49.9667 296.028 49.15 296.028 48.15C296.028 47.15 295.612 46.4167 294.778 45.95C293.945 45.4833 292.712 45.1 291.078 44.8L289.378 44.5C287.712 44.2 286.195 43.7667 284.828 43.2C283.462 42.6333 282.378 41.85 281.578 40.85C280.778 39.85 280.378 38.5667 280.378 37C280.378 34.6667 281.245 32.8667 282.978 31.6C284.712 30.3 287.012 29.65 289.878 29.65C292.645 29.65 294.912 30.2833 296.678 31.55C298.478 32.7833 299.645 34.4667 300.178 36.6L295.378 37.95C295.078 36.45 294.445 35.4 293.478 34.8C292.512 34.1667 291.312 33.85 289.878 33.85C288.478 33.85 287.378 34.1167 286.578 34.65C285.778 35.15 285.378 35.8667 285.378 36.8C285.378 37.8 285.762 38.5333 286.528 39C287.328 39.4667 288.395 39.8167 289.728 40.05L291.478 40.35C293.245 40.65 294.862 41.0667 296.328 41.6C297.795 42.1333 298.945 42.9 299.778 43.9C300.645 44.9 301.078 46.2333 301.078 47.9C301.078 50.3667 300.162 52.2833 298.328 53.65C296.495 55.0167 294.028 55.7 290.928 55.7Z" fill="#C9D6DD"/>
<path d="M28.7021 55H27.7021V56H28.7021V55ZM28.7021 24.9H29.7021V23.9H28.7021V24.9ZM17.9521 24.9H16.9521V25.9H17.9521V24.9ZM17.9521 20V19H16.9521V20H17.9521ZM44.8521 20H45.8521V19H44.8521V20ZM44.8521 24.9V25.9H45.8521V24.9H44.8521ZM34.1021 24.9V23.9H33.1021V24.9H34.1021ZM34.1021 55V56H35.1021V55H34.1021ZM28.7021 55H29.7021V24.9H28.7021H27.7021V55H28.7021ZM28.7021 24.9V23.9H17.9521V24.9V25.9H28.7021V24.9ZM17.9521 24.9H18.9521V20H17.9521H16.9521V24.9H17.9521ZM17.9521 20V21H44.8521V20V19H17.9521V20ZM44.8521 20H43.8521V24.9H44.8521H45.8521V20H44.8521ZM44.8521 24.9V23.9H34.1021V24.9V25.9H44.8521V24.9ZM34.1021 24.9H33.1021V55H34.1021H35.1021V24.9H34.1021ZM34.1021 55V54H28.7021V55V56H34.1021V55ZM51.3127 54.15L50.8165 55.0183L50.8284 55.0249L51.3127 54.15ZM46.9127 49.7L46.0308 50.1714L46.0356 50.1805L46.0407 50.1895L46.9127 49.7ZM46.9127 35.7L47.7912 36.1778L47.7946 36.1714L46.9127 35.7ZM51.2127 31.25L51.7037 32.1212L51.7088 32.1182L51.2127 31.25ZM63.8627 31.25L63.3458 32.1061L63.3553 32.1118L63.3648 32.1173L63.8627 31.25ZM68.0627 35.6L68.9442 35.1278V35.1278L68.0627 35.6ZM69.5627 44.1V45.1H70.5627V44.1H69.5627ZM50.6127 44.1V43.1H49.5815L49.6132 44.1308L50.6127 44.1ZM52.7627 49.3L52.0735 50.0246L52.0825 50.0332L52.0918 50.0415L52.7627 49.3ZM62.3127 49.9L61.6578 49.1443L61.6514 49.1498L61.6451 49.1554L62.3127 49.9ZM64.6127 46.9L65.0724 46.0119L64.1501 45.5345L63.7079 46.4742L64.6127 46.9ZM68.8627 49.1L69.7571 49.5472L70.1981 48.6652L69.3224 48.2119L68.8627 49.1ZM66.8127 52.05L66.0586 51.3932L66.0525 51.4002L66.0465 51.4074L66.8127 52.05ZM63.3627 54.65L63.8015 55.5486V55.5486L63.3627 54.65ZM50.6627 40.15L49.6727 40.0086L49.5097 41.15H50.6627V40.15ZM64.3127 40.15V41.15H65.3867L65.3102 40.0788L64.3127 40.15ZM62.3127 35.8L61.6483 36.5474L61.6542 36.5526L61.6602 36.5578L62.3127 35.8ZM52.8627 35.8L53.5152 36.5578L53.5168 36.5564L52.8627 35.8ZM57.8627 55.7V54.7C55.5029 54.7 53.4918 54.2133 51.797 53.2751L51.3127 54.15L50.8284 55.0249C52.8669 56.1534 55.2225 56.7 57.8627 56.7V55.7ZM51.3127 54.15L51.8088 53.2818C50.1017 52.3062 48.7639 50.9548 47.7847 49.2105L46.9127 49.7L46.0407 50.1895C47.1948 52.2452 48.7904 53.8604 50.8166 55.0182L51.3127 54.15ZM46.9127 49.7L47.7946 49.2286C46.8501 47.4614 46.3627 45.3946 46.3627 43H45.3627H44.3627C44.3627 45.672 44.9086 48.0719 46.0308 50.1714L46.9127 49.7ZM45.3627 43H46.3627V42.4H45.3627H44.3627V43H45.3627ZM45.3627 42.4H46.3627C46.3627 39.9691 46.8512 37.906 47.7912 36.1778L46.9127 35.7L46.0342 35.2222C44.9075 37.294 44.3627 39.6976 44.3627 42.4H45.3627ZM46.9127 35.7L47.7946 36.1714C48.7422 34.3984 50.0432 33.0571 51.7037 32.1212L51.2127 31.25L50.7217 30.3788C48.7156 31.5096 47.1498 33.1349 46.0308 35.2286L46.9127 35.7ZM51.2127 31.25L51.7088 32.1182C53.4053 31.1488 55.38 30.65 57.6627 30.65V29.65V28.65C55.0787 28.65 52.7534 29.2179 50.7166 30.3818L51.2127 31.25ZM57.6627 29.65V30.65C59.8744 30.65 61.7569 31.1467 63.3458 32.1061L63.8627 31.25L64.3796 30.3939C62.4352 29.2199 60.1843 28.65 57.6627 28.65V29.65ZM63.8627 31.25L63.3648 32.1173C64.9991 33.0554 66.2677 34.367 67.1812 36.0722L68.0627 35.6L68.9442 35.1278C67.8577 33.0997 66.3263 31.5112 64.3606 30.3827L63.8627 31.25ZM68.0627 35.6L67.1812 36.0722C68.0905 37.7695 68.5627 39.785 68.5627 42.15H69.5627H70.5627C70.5627 39.515 70.0349 37.1638 68.9442 35.1278L68.0627 35.6ZM69.5627 42.15H68.5627V44.1H69.5627H70.5627V42.15H69.5627ZM69.5627 44.1V43.1H50.6127V44.1V45.1H69.5627V44.1ZM50.6127 44.1L49.6132 44.1308C49.6866 46.518 50.4874 48.5158 52.0735 50.0246L52.7627 49.3L53.4519 48.5754C52.3047 47.4842 51.6721 46.0153 51.6122 44.0692L50.6127 44.1ZM52.7627 49.3L52.0918 50.0415C53.6937 51.4909 55.6735 52.2 57.9627 52.2V51.2V50.2C56.1185 50.2 54.6317 49.6425 53.4336 48.5585L52.7627 49.3ZM57.9627 51.2V52.2C60.0249 52.2 61.7582 51.7402 62.9802 50.6446L62.3127 49.9L61.6451 49.1554C60.9338 49.7932 59.7672 50.2 57.9627 50.2V51.2ZM62.3127 49.9L62.9676 50.6557C64.067 49.7029 64.9215 48.5924 65.5175 47.3258L64.6127 46.9L63.7079 46.4742C63.2373 47.4743 62.5584 48.3637 61.6578 49.1443L62.3127 49.9ZM64.6127 46.9L64.153 47.7881L68.403 49.9881L68.8627 49.1L69.3224 48.2119L65.0724 46.0119L64.6127 46.9ZM68.8627 49.1L67.9683 48.6528C67.549 49.4913 66.9194 50.4049 66.0586 51.3932L66.8127 52.05L67.5668 52.7068C68.506 51.6284 69.2431 50.5753 69.7571 49.5472L68.8627 49.1ZM66.8127 52.05L66.0465 51.4074C65.2848 52.3156 64.254 53.1018 62.9239 53.7514L63.3627 54.65L63.8015 55.5486C65.338 54.7982 66.6073 53.851 67.5789 52.6926L66.8127 52.05ZM63.3627 54.65L62.9239 53.7514C61.6706 54.3635 60.001 54.7 57.8627 54.7V55.7V56.7C60.191 56.7 62.1881 56.3365 63.8015 55.5486L63.3627 54.65ZM50.6627 40.15V41.15H64.3127V40.15V39.15H50.6627V40.15ZM64.3127 40.15L65.3102 40.0788C65.1616 37.9984 64.4034 36.2806 62.9652 35.0422L62.3127 35.8L61.6602 36.5578C62.622 37.386 63.1972 38.5682 63.3152 40.2212L64.3127 40.15ZM62.3127 35.8L62.9771 35.0526C61.5582 33.7914 59.7384 33.2 57.6127 33.2V34.2V35.2C59.3536 35.2 60.6672 35.6753 61.6483 36.5474L62.3127 35.8ZM57.6127 34.2V33.2C55.486 33.2 53.6562 33.7916 52.2085 35.0436L52.8627 35.8L53.5168 36.5564C54.5359 35.675 55.8727 35.2 57.6127 35.2V34.2ZM52.8627 35.8L52.2102 35.0422C50.7931 36.2625 49.9668 37.9504 49.6727 40.0086L50.6627 40.15L51.6526 40.2914C51.892 38.6162 52.5322 37.4042 53.5152 36.5578L52.8627 35.8ZM82.2619 54.2L81.7962 55.0849L81.8025 55.0882L82.2619 54.2ZM77.7119 49.85L76.8464 50.3511L76.8531 50.3623L77.7119 49.85ZM77.7119 35.55L76.8531 35.0377L76.8504 35.0423L77.7119 35.55ZM82.2619 31.2L82.7277 32.0849L82.7333 32.0819L82.2619 31.2ZM94.7619 30.95L95.2233 30.0628V30.0628L94.7619 30.95ZM98.7619 34.4L97.9418 34.9722L97.9462 34.9785L97.9507 34.9848L98.7619 34.4ZM100.762 39.15L100.967 40.1287L101.912 39.9303L101.747 38.9795L100.762 39.15ZM95.7619 40.2L94.7732 40.3498L94.9317 41.3961L95.9674 41.1787L95.7619 40.2ZM94.7119 37.2L93.8516 37.7098V37.7098L94.7119 37.2ZM92.4619 35.05L92.945 34.1744V34.1744L92.4619 35.05ZM84.9119 35.25L85.3998 36.123L85.4081 36.1182L84.9119 35.25ZM82.2119 38.05L83.0861 38.5357L83.0916 38.5255L82.2119 38.05ZM82.2119 47.35L83.0916 46.8745V46.8745L82.2119 47.35ZM84.9119 50.15L84.4241 51.023L84.4348 51.0289L84.9119 50.15ZM93.7619 49.45L94.4584 50.1676L94.4637 50.1624L94.469 50.1571L93.7619 49.45ZM95.9119 45.15L96.1361 44.1754L95.1067 43.9387L94.9266 44.9795L95.9119 45.15ZM100.912 46.3L101.885 46.529L102.116 45.5507L101.136 45.3254L100.912 46.3ZM98.7619 51L97.9507 50.4152L97.9462 50.4215L97.9418 50.4278L98.7619 51ZM94.7619 54.45L95.2091 55.3444L95.2162 55.3409L95.2233 55.3372L94.7619 54.45ZM88.7119 55.7V54.7C86.4909 54.7 84.5005 54.2321 82.7213 53.3118L82.2619 54.2L81.8025 55.0882C83.89 56.1679 86.1996 56.7 88.7119 56.7V55.7ZM82.2619 54.2L82.7277 53.3151C80.9956 52.4035 79.6128 51.0848 78.5707 49.3377L77.7119 49.85L76.8531 50.3623C78.0777 52.4152 79.7282 53.9965 81.7962 55.0849L82.2619 54.2ZM77.7119 49.85L78.5773 49.349C77.5826 47.6308 77.0619 45.5284 77.0619 43H76.0619H75.0619C75.0619 45.8049 75.6412 48.2692 76.8465 50.351L77.7119 49.85ZM76.0619 43H77.0619V42.35H76.0619H75.0619V43H76.0619ZM76.0619 42.35H77.0619C77.0619 39.8209 77.5829 37.7387 78.5735 36.0577L77.7119 35.55L76.8504 35.0423C75.641 37.0947 75.0619 39.5458 75.0619 42.35H76.0619ZM77.7119 35.55L78.5707 36.0623C79.6128 34.3152 80.9956 32.9965 82.7277 32.0849L82.2619 31.2L81.7962 30.3151C79.7282 31.4035 78.0777 32.9848 76.8531 35.0377L77.7119 35.55ZM82.2619 31.2L82.7333 32.0819C84.5102 31.1322 86.4963 30.65 88.7119 30.65V29.65V28.65C86.1942 28.65 83.8803 29.2011 81.7905 30.3181L82.2619 31.2ZM88.7119 29.65V30.65C90.9588 30.65 92.8086 31.0614 94.3006 31.8372L94.7619 30.95L95.2233 30.0628C93.3819 29.1052 91.1984 28.65 88.7119 28.65V29.65ZM94.7619 30.95L94.3006 31.8372C95.835 32.6351 97.041 33.6811 97.9418 34.9722L98.7619 34.4L99.582 33.8278C98.4828 32.2522 97.0222 30.9982 95.2233 30.0628L94.7619 30.95ZM98.7619 34.4L97.9507 34.9848C98.8958 36.2956 99.5026 37.7374 99.7766 39.3205L100.762 39.15L101.747 38.9795C101.421 37.0959 100.695 35.371 99.5731 33.8152L98.7619 34.4ZM100.762 39.15L100.556 38.1713L95.5564 39.2213L95.7619 40.2L95.9674 41.1787L100.967 40.1287L100.762 39.15ZM95.7619 40.2L96.7506 40.0502C96.5659 38.8312 96.1752 37.7077 95.5722 36.6902L94.7119 37.2L93.8516 37.7098C94.3153 38.4923 94.6246 39.3688 94.7732 40.3498L95.7619 40.2ZM94.7119 37.2L95.5722 36.6902C94.9429 35.6282 94.0588 34.7889 92.945 34.1744L92.4619 35.05L91.9788 35.9256C92.7984 36.3777 93.4143 36.9718 93.8516 37.7098L94.7119 37.2ZM92.4619 35.05L92.945 34.1744C91.7897 33.537 90.394 33.25 88.8119 33.25V34.25V35.25C90.1631 35.25 91.2008 35.4963 91.9788 35.9256L92.4619 35.05ZM88.8119 34.25V33.25C87.2166 33.25 85.7436 33.623 84.4158 34.3818L84.9119 35.25L85.4081 36.1182C86.4135 35.5437 87.5406 35.25 88.8119 35.25V34.25ZM84.9119 35.25L84.4241 34.3771C83.1118 35.1104 82.0816 36.1881 81.3322 37.5745L82.2119 38.05L83.0916 38.5255C83.6755 37.4453 84.4454 36.6563 85.3997 36.1229L84.9119 35.25ZM82.2119 38.05L81.3378 37.5644C80.5696 38.947 80.2119 40.5905 80.2119 42.45H81.2119H82.2119C82.2119 40.8428 82.5209 39.553 83.0861 38.5356L82.2119 38.05ZM81.2119 42.45H80.2119V42.9H81.2119H82.2119V42.45H81.2119ZM81.2119 42.9H80.2119C80.2119 44.7607 80.57 46.4155 81.3322 47.8255L82.2119 47.35L83.0916 46.8745C82.5205 45.8178 82.2119 44.506 82.2119 42.9H81.2119ZM82.2119 47.35L81.3322 47.8255C82.0816 49.2119 83.1118 50.2896 84.4241 51.0229L84.9119 50.15L85.3997 49.2771C84.4454 48.7437 83.6755 47.9547 83.0916 46.8745L82.2119 47.35ZM84.9119 50.15L84.4348 51.0289C85.7595 51.748 87.2256 52.1 88.8119 52.1V51.1V50.1C87.5316 50.1 86.3977 49.8187 85.389 49.2711L84.9119 50.15ZM88.8119 51.1V52.1C91.1402 52.1 93.0781 51.5073 94.4584 50.1676L93.7619 49.45L93.0654 48.7324C92.1791 49.5927 90.817 50.1 88.8119 50.1V51.1ZM93.7619 49.45L94.469 50.1571C95.7625 48.8637 96.5657 47.2364 96.8973 45.3205L95.9119 45.15L94.9266 44.9795C94.6581 46.5303 94.028 47.7697 93.0548 48.7429L93.7619 49.45ZM95.9119 45.15L95.6878 46.1246L100.688 47.2746L100.912 46.3L101.136 45.3254L96.1361 44.1754L95.9119 45.15ZM100.912 46.3L99.9385 46.071C99.569 47.6413 98.908 49.0873 97.9507 50.4152L98.7619 51L99.5731 51.5848C100.682 50.046 101.455 48.3587 101.885 46.529L100.912 46.3ZM98.7619 51L97.9418 50.4278C97.041 51.7189 95.835 52.7649 94.3006 53.5628L94.7619 54.45L95.2233 55.3372C97.0222 54.4018 98.4828 53.1478 99.582 51.5722L98.7619 51ZM94.7619 54.45L94.3147 53.5556C92.8192 54.3033 90.9641 54.7 88.7119 54.7V55.7V56.7C91.1931 56.7 93.3712 56.2634 95.2091 55.3444L94.7619 54.45ZM108.352 55H107.352V56H108.352V55ZM108.352 20V19H107.352V20H108.352ZM113.502 20H114.502V19H113.502V20ZM113.502 33.85H112.502V34.85H113.502V33.85ZM114.302 33.85V34.85H114.905L115.187 34.3157L114.302 33.85ZM115.702 32L115.014 31.274L115.004 31.2833L114.995 31.2929L115.702 32ZM118.152 30.55L118.496 31.4889L118.504 31.4858L118.513 31.4826L118.152 30.55ZM127.002 31.2L126.499 32.0645L126.508 32.0695L127.002 31.2ZM130.452 34.75L129.573 35.2275L129.578 35.2356L130.452 34.75ZM131.702 55V56H132.702V55H131.702ZM126.552 55H125.552V56H126.552V55ZM124.952 35.9L124.256 36.6182L124.262 36.6239L124.268 36.6295L124.952 35.9ZM115.402 36.45L114.669 35.7695L114.66 35.7791L115.402 36.45ZM113.502 55V56H114.502V55H113.502ZM108.352 55H109.352V20H108.352H107.352V55H108.352ZM108.352 20V21H113.502V20V19H108.352V20ZM113.502 20H112.502V33.85H113.502H114.502V20H113.502ZM113.502 33.85V34.85H114.302V33.85V32.85H113.502V33.85ZM114.302 33.85L115.187 34.3157C115.465 33.7861 115.867 33.2488 116.409 32.7071L115.702 32L114.995 31.2929C114.336 31.9512 113.805 32.6473 113.417 33.3843L114.302 33.85ZM115.702 32L116.39 32.726C116.905 32.2378 117.596 31.8188 118.496 31.4889L118.152 30.55L117.808 29.6111C116.707 30.0146 115.765 30.5622 115.014 31.274L115.702 32ZM118.152 30.55L118.513 31.4826C119.394 31.1415 120.561 30.95 122.052 30.95V29.95V28.95C120.409 28.95 118.976 29.1585 117.791 29.6174L118.152 30.55ZM122.052 29.95V30.95C123.765 30.95 125.237 31.3307 126.499 32.0645L127.002 31.2L127.504 30.3355C125.9 29.4027 124.072 28.95 122.052 28.95V29.95ZM127.002 31.2L126.508 32.0695C127.806 32.8073 128.826 33.8522 129.573 35.2275L130.452 34.75L131.33 34.2725C130.411 32.5811 129.13 31.2594 127.496 30.3305L127.002 31.2ZM130.452 34.75L129.578 35.2356C130.311 36.5551 130.702 38.1958 130.702 40.2H131.702H132.702C132.702 37.9375 132.26 35.9449 131.326 34.2644L130.452 34.75ZM131.702 40.2H130.702V55H131.702H132.702V40.2H131.702ZM131.702 55V54H126.552V55V56H131.702V55ZM126.552 55H127.552V40.6H126.552H125.552V55H126.552ZM126.552 40.6H127.552C127.552 38.3183 126.982 36.4322 125.636 35.1705L124.952 35.9L124.268 36.6295C125.055 37.3678 125.552 38.615 125.552 40.6H126.552ZM124.952 35.9L125.648 35.1818C124.349 33.9242 122.608 33.35 120.552 33.35V34.35V35.35C122.229 35.35 123.421 35.8091 124.256 36.6182L124.952 35.9ZM120.552 34.35V33.35C118.176 33.35 116.181 34.1409 114.669 35.7695L115.402 36.45L116.135 37.1304C117.222 35.9591 118.661 35.35 120.552 35.35V34.35ZM115.402 36.45L114.66 35.7791C113.17 37.4266 112.502 39.7373 112.502 42.55H113.502H114.502C114.502 40.0294 115.101 38.2734 116.143 37.1209L115.402 36.45ZM113.502 42.55H112.502V55H113.502H114.502V42.55H113.502ZM113.502 55V54H108.352V55V56H113.502V55ZM151.473 55L150.511 54.7253L150.147 56H151.473V55ZM161.473 20V19H160.719L160.511 19.7253L161.473 20ZM170.973 20L171.935 19.7265L171.728 19H170.973V20ZM180.923 55V56H182.247L181.885 54.7266L180.923 55ZM175.373 55L174.41 55.2685L174.614 56H175.373V55ZM173.073 46.75L174.036 46.4815L173.832 45.75H173.073V46.75ZM159.373 46.75V45.75H158.614L158.41 46.4815L159.373 46.75ZM157.073 55V56H157.832L158.036 55.2685L157.073 55ZM160.723 41.75L159.759 41.4829L159.408 42.75H160.723V41.75ZM171.723 41.75V42.75H173.038L172.687 41.4829L171.723 41.75ZM166.623 23.35L167.587 23.0829L167.383 22.35H166.623V23.35ZM165.823 23.35V22.35H165.062L164.859 23.0829L165.823 23.35ZM151.473 55L152.434 55.2747L162.434 20.2747L161.473 20L160.511 19.7253L150.511 54.7253L151.473 55ZM161.473 20V21H170.973V20V19H161.473V20ZM170.973 20L170.011 20.2734L179.961 55.2734L180.923 55L181.885 54.7266L171.935 19.7265L170.973 20ZM180.923 55V54H175.373V55V56H180.923V55ZM175.373 55L176.336 54.7315L174.036 46.4815L173.073 46.75L172.11 47.0185L174.41 55.2685L175.373 55ZM173.073 46.75V45.75H159.373V46.75V47.75H173.073V46.75ZM159.373 46.75L158.41 46.4815L156.11 54.7315L157.073 55L158.036 55.2685L160.336 47.0185L159.373 46.75ZM157.073 55V54H151.473V55V56H157.073V55ZM160.723 41.75V42.75H171.723V41.75V40.75H160.723V41.75ZM171.723 41.75L172.687 41.4829L167.587 23.0829L166.623 23.35L165.659 23.6171L170.759 42.0171L171.723 41.75ZM166.623 23.35V22.35H165.823V23.35V24.35H166.623V23.35ZM165.823 23.35L164.859 23.0829L159.759 41.4829L160.723 41.75L161.687 42.0171L166.787 23.6171L165.823 23.35ZM196.015 54.4L195.45 55.2254L195.46 55.2321L196.015 54.4ZM193.165 51.5L194.025 50.9895L193.734 50.5H193.165V51.5ZM192.365 51.5V50.5H191.365V51.5H192.365ZM192.365 55V56H193.365V55H192.365ZM187.315 55H186.315V56H187.315V55ZM187.315 20V19H186.315V20H187.315ZM192.465 20H193.465V19H192.465V20ZM192.465 33.7H191.465V34.7H192.465V33.7ZM193.265 33.7V34.7H193.831L194.122 34.2145L193.265 33.7ZM194.865 31.8L195.534 32.5433L195.544 32.5343L195.553 32.525L194.865 31.8ZM197.515 30.25L197.173 29.3102V29.3102L197.515 30.25ZM207.265 31.15L207.764 30.2838V30.2838L207.265 31.15ZM211.365 49.9L210.493 49.4105L210.49 49.4157L211.365 49.9ZM207.215 54.2L206.715 53.3338L206.708 53.3381L207.215 54.2ZM205.565 49.05L204.866 48.3348L204.858 48.3429L205.565 49.05ZM205.615 36.35L206.322 35.6429V35.6429L205.615 36.35ZM194.565 36.35L193.866 35.6348L193.858 35.6429L194.565 36.35ZM194.565 49.05L193.857 49.7572L193.866 49.7652L194.565 49.05ZM201.565 55.7V54.7C199.264 54.7 197.639 54.281 196.569 53.568L196.015 54.4L195.46 55.2321C196.99 56.2524 199.066 56.7 201.565 56.7V55.7ZM196.015 54.4L196.579 53.5747C195.405 52.7712 194.568 51.9049 194.025 50.9895L193.165 51.5L192.305 52.0105C193.028 53.2284 194.091 54.2955 195.45 55.2253L196.015 54.4ZM193.165 51.5V50.5H192.365V51.5V52.5H193.165V51.5ZM192.365 51.5H191.365V55H192.365H193.365V51.5H192.365ZM192.365 55V54H187.315V55V56H192.365V55ZM187.315 55H188.315V20H187.315H186.315V55H187.315ZM187.315 20V21H192.465V20V19H187.315V20ZM192.465 20H191.465V33.7H192.465H193.465V20H192.465ZM192.465 33.7V34.7H193.265V33.7V32.7H192.465V33.7ZM193.265 33.7L194.122 34.2145C194.464 33.645 194.93 33.0868 195.534 32.5433L194.865 31.8L194.196 31.0567C193.466 31.7132 192.865 32.4217 192.407 33.1855L193.265 33.7ZM194.865 31.8L195.553 32.525C196.097 32.0084 196.852 31.5552 197.856 31.1898L197.515 30.25L197.173 29.3102C195.978 29.7448 194.965 30.3249 194.176 31.075L194.865 31.8ZM197.515 30.25L197.856 31.1898C198.815 30.8413 200.041 30.65 201.565 30.65V29.65V28.65C199.888 28.65 198.414 28.8587 197.173 29.3102L197.515 30.25ZM201.565 29.65V30.65C203.462 30.65 205.189 31.1068 206.765 32.0162L207.265 31.15L207.764 30.2838C205.874 29.1932 203.801 28.65 201.565 28.65V29.65ZM207.265 31.15L206.765 32.0162C208.326 32.9167 209.583 34.2261 210.536 35.9778L211.415 35.5L212.293 35.0222C211.179 32.9739 209.67 31.3833 207.764 30.2838L207.265 31.15ZM211.415 35.5L210.536 35.9778C211.474 37.7025 211.965 39.7976 211.965 42.3H212.965H213.965C213.965 39.5358 213.422 37.0975 212.293 35.0222L211.415 35.5ZM212.965 42.3H211.965V43.05H212.965H213.965V42.3H212.965ZM212.965 43.05H211.965C211.965 45.5833 211.459 47.69 210.493 49.4105L211.365 49.9L212.237 50.3895C213.404 48.31 213.965 45.85 213.965 43.05H212.965ZM211.365 49.9L210.49 49.4157C209.538 51.1343 208.28 52.4307 206.715 53.3338L207.215 54.2L207.714 55.0662C209.616 53.9693 211.124 52.3991 212.24 50.3843L211.365 49.9ZM207.215 54.2L206.708 53.3381C205.169 54.2433 203.462 54.7 201.565 54.7V55.7V56.7C203.801 56.7 205.861 56.1567 207.722 55.0619L207.215 54.2ZM200.065 51.2V52.2C202.534 52.2 204.631 51.3979 206.272 49.7571L205.565 49.05L204.858 48.3429C203.632 49.5687 202.062 50.2 200.065 50.2V51.2ZM205.565 49.05L206.264 49.7652C207.976 48.0918 208.765 45.7513 208.765 42.9H207.765H206.765C206.765 45.382 206.087 47.1415 204.866 48.3348L205.565 49.05ZM207.765 42.9H208.765V42.45H207.765H206.765V42.9H207.765ZM207.765 42.45H208.765C208.765 39.6342 207.994 37.3151 206.322 35.6429L205.615 36.35L204.908 37.0571C206.102 38.2516 206.765 39.9992 206.765 42.45H207.765ZM205.615 36.35L206.322 35.6429C204.678 33.9991 202.562 33.2 200.065 33.2V34.2V35.2C202.1 35.2 203.685 35.8342 204.908 37.0571L205.615 36.35ZM200.065 34.2V33.2C197.624 33.2 195.534 34.0047 193.866 35.6348L194.565 36.35L195.264 37.0652C196.529 35.8286 198.105 35.2 200.065 35.2V34.2ZM194.565 36.35L193.858 35.6429C192.185 37.3151 191.415 39.6342 191.415 42.45H192.415H193.415C193.415 39.9992 194.077 38.2516 195.272 37.0571L194.565 36.35ZM192.415 42.45H191.415V42.9H192.415H193.415V42.45H192.415ZM192.415 42.9H191.415C191.415 45.745 192.183 48.0826 193.858 49.7571L194.565 49.05L195.272 48.3429C194.08 47.1507 193.415 45.3883 193.415 42.9H192.415ZM194.565 49.05L193.866 49.7652C195.534 51.3953 197.624 52.2 200.065 52.2V51.2V50.2C198.105 50.2 196.529 49.5714 195.264 48.3348L194.565 49.05ZM223.696 65H222.696V66H223.696V65ZM223.696 60.5V59.5H222.696V60.5H223.696ZM238.846 51.4H239.846V50.4H238.846V51.4ZM238.046 51.4V50.4H237.399L237.134 50.9896L238.046 51.4ZM236.646 53.35L237.353 54.0571V54.0571L236.646 53.35ZM234.196 54.85L234.557 55.7826V55.7826L234.196 54.85ZM225.296 54.2L225.79 53.3305L225.296 54.2ZM221.846 50.65L220.967 51.1275V51.1275L221.846 50.65ZM220.596 30.35V29.35H219.596V30.35H220.596ZM225.746 30.35H226.746V29.35H225.746V30.35ZM227.346 49.55L226.65 50.2682L226.656 50.2739L226.662 50.2795L227.346 49.55ZM236.846 48.95L236.113 48.2695L236.104 48.2791L236.846 48.95ZM238.796 30.35V29.35H237.796V30.35H238.796ZM243.946 30.35H244.946V29.35H243.946V30.35ZM242.596 63.65L241.889 62.9429L241.882 62.9496L241.876 62.9564L242.596 63.65ZM223.696 65H224.696V60.5H223.696H222.696V65H223.696ZM223.696 60.5V61.5H237.446V60.5V59.5H223.696V60.5ZM237.446 60.5V61.5C238.085 61.5 238.743 61.3255 239.227 60.8073C239.699 60.3021 239.846 59.6376 239.846 59H238.846H237.846C237.846 59.1754 237.825 59.29 237.804 59.3592C237.793 59.3927 237.783 59.4137 237.777 59.4255C237.77 59.4369 237.766 59.4416 237.765 59.4427C237.764 59.4437 237.762 59.4452 237.758 59.4479C237.754 59.4507 237.743 59.4571 237.722 59.4645C237.679 59.48 237.593 59.5 237.446 59.5V60.5ZM238.846 59H239.846V51.4H238.846H237.846V59H238.846ZM238.846 51.4V50.4H238.046V51.4V52.4H238.846V51.4ZM238.046 51.4L237.134 50.9896C236.893 51.524 236.505 52.0766 235.939 52.6429L236.646 53.35L237.353 54.0571C238.053 53.3568 238.598 52.6093 238.958 51.8104L238.046 51.4ZM236.646 53.35L235.939 52.6429C235.462 53.1193 234.776 53.553 233.835 53.9174L234.196 54.85L234.557 55.7826C235.682 55.347 236.629 54.7807 237.353 54.0571L236.646 53.35ZM234.196 54.85L233.835 53.9174C232.954 54.2585 231.786 54.45 230.296 54.45V55.45V56.45C231.939 56.45 233.371 56.2415 234.557 55.7826L234.196 54.85ZM230.296 55.45V54.45C228.584 54.45 227.09 54.0694 225.79 53.3305L225.296 54.2L224.802 55.0695C226.435 55.9972 228.275 56.45 230.296 56.45V55.45ZM225.296 54.2L225.79 53.3305C224.491 52.5927 223.472 51.5478 222.725 50.1725L221.846 50.65L220.967 51.1275C221.886 52.8189 223.167 54.1406 224.802 55.0695L225.296 54.2ZM221.846 50.65L222.725 50.1725C221.986 48.8127 221.596 47.1669 221.596 45.2H220.596H219.596C219.596 47.4331 220.04 49.4206 220.967 51.1275L221.846 50.65ZM220.596 45.2H221.596V30.35H220.596H219.596V45.2H220.596ZM220.596 30.35V31.35H225.746V30.35V29.35H220.596V30.35ZM225.746 30.35H224.746V44.8H225.746H226.746V30.35H225.746ZM225.746 44.8H224.746C224.746 47.0847 225.317 48.9771 226.65 50.2682L227.346 49.55L228.042 48.8318C227.241 48.0562 226.746 46.782 226.746 44.8H225.746ZM227.346 49.55L226.662 50.2795C227.964 51.5005 229.72 52.05 231.796 52.05V51.05V50.05C230.071 50.05 228.861 49.5995 228.03 48.8205L227.346 49.55ZM231.796 51.05V52.05C234.143 52.05 236.109 51.2553 237.587 49.6209L236.846 48.95L236.104 48.2791C235.05 49.4447 233.649 50.05 231.796 50.05V51.05ZM236.846 48.95L237.579 49.6305C239.108 47.9831 239.796 45.6687 239.796 42.85H238.796H237.796C237.796 45.3646 237.183 47.1169 236.113 48.2695L236.846 48.95ZM238.796 42.85H239.796V30.35H238.796H237.796V42.85H238.796ZM238.796 30.35V31.35H243.946V30.35V29.35H238.796V30.35ZM243.946 30.35H242.946V60.05H243.946H244.946V30.35H243.946ZM243.946 60.05H242.946C242.946 61.3357 242.568 62.2636 241.889 62.9429L242.596 63.65L243.303 64.3571C244.424 63.2364 244.946 61.7643 244.946 60.05H243.946ZM242.596 63.65L241.876 62.9564C241.239 63.6177 240.323 64 238.996 64V65V66C240.735 66 242.22 65.4823 243.316 64.3436L242.596 63.65ZM238.996 65V64H223.696V65V66H238.996V65ZM255.359 53.6L255.92 52.7721L255.359 53.6ZM251.559 47.25L251.326 46.2775L250.421 46.4943L250.572 47.4125L251.559 47.25ZM256.359 46.1L257.34 45.9085L257.14 44.8844L256.126 45.1275L256.359 46.1ZM257.709 49.35L258.493 48.7293V48.7293L257.709 49.35ZM260.059 51.05L259.722 51.9918L259.733 51.9954L260.059 51.05ZM266.909 50.6L266.333 49.7822L266.326 49.7873L266.319 49.7926L266.909 50.6ZM263.309 44.8L263.489 43.8164L263.483 43.8152L263.309 44.8ZM261.609 44.5L261.432 45.4842L261.435 45.4848L261.609 44.5ZM257.059 43.2L256.676 44.1237V44.1237L257.059 43.2ZM253.809 40.85L254.59 40.2253V40.2253L253.809 40.85ZM255.209 31.6L255.799 32.4075L255.809 32.4L255.209 31.6ZM268.909 31.55L268.326 32.3627L268.335 32.3689L268.344 32.3749L268.909 31.55ZM272.409 36.6L272.68 37.5626L273.615 37.2997L273.379 36.3575L272.409 36.6ZM267.609 37.95L266.628 38.1461L266.84 39.205L267.88 38.9127L267.609 37.95ZM265.709 34.8L265.161 35.6365L265.171 35.6432L265.181 35.6496L265.709 34.8ZM258.809 34.65L259.339 35.498L259.351 35.4902L259.363 35.482L258.809 34.65ZM258.759 39L258.239 39.8542L258.247 39.8591L258.255 39.8638L258.759 39ZM261.959 40.05L261.786 41.035L261.79 41.0356L261.959 40.05ZM263.709 40.35L263.54 41.3356L263.541 41.3359L263.709 40.35ZM272.009 43.9L271.241 44.5402L271.247 44.5476L271.253 44.5549L272.009 43.9ZM270.559 53.65L271.156 54.4517V54.4517L270.559 53.65ZM263.159 55.7V54.7C260.174 54.7 257.783 54.0343 255.92 52.7721L255.359 53.6L254.798 54.4279C257.068 55.9657 259.877 56.7 263.159 56.7V55.7ZM255.359 53.6L255.92 52.7721C254.115 51.5496 252.975 49.6945 252.546 47.0875L251.559 47.25L250.572 47.4125C251.076 50.4722 252.469 52.8504 254.798 54.4279L255.359 53.6ZM251.559 47.25L251.792 48.2225L256.592 47.0725L256.359 46.1L256.126 45.1275L251.326 46.2775L251.559 47.25ZM256.359 46.1L255.377 46.2915C255.664 47.7606 256.163 49.0083 256.925 49.9707L257.709 49.35L258.493 48.7293C257.988 48.0917 257.587 47.1727 257.34 45.9085L256.359 46.1ZM257.709 49.35L256.925 49.9707C257.671 50.913 258.607 51.5935 259.722 51.9917L260.059 51.05L260.395 50.1083C259.644 49.8398 259.014 49.387 258.493 48.7293L257.709 49.35ZM260.059 51.05L259.733 51.9954C260.812 52.3675 261.956 52.55 263.159 52.55V51.55V50.55C262.161 50.55 261.239 50.3991 260.385 50.1046L260.059 51.05ZM263.159 51.55V52.55C264.9 52.55 266.392 52.2159 267.499 51.4074L266.909 50.6L266.319 49.7926C265.692 50.2508 264.684 50.55 263.159 50.55V51.55ZM266.909 50.6L267.484 51.4178C268.619 50.6192 269.259 49.5118 269.259 48.15H268.259H267.259C267.259 48.7882 266.998 49.3142 266.333 49.7822L266.909 50.6ZM268.259 48.15H269.259C269.259 46.8091 268.664 45.7311 267.497 45.0775L267.009 45.95L266.52 46.8225C267.02 47.1023 267.259 47.4909 267.259 48.15H268.259ZM267.009 45.95L267.497 45.0775C266.523 44.5316 265.163 44.1239 263.489 43.8165L263.309 44.8L263.128 45.7835C264.721 46.0761 265.828 46.4351 266.52 46.8225L267.009 45.95ZM263.309 44.8L263.483 43.8152L261.783 43.5152L261.609 44.5L261.435 45.4848L263.135 45.7848L263.309 44.8ZM261.609 44.5L261.786 43.5158C260.18 43.2267 258.734 42.8118 257.442 42.2763L257.059 43.2L256.676 44.1237C258.117 44.7215 259.704 45.1733 261.432 45.4842L261.609 44.5ZM257.059 43.2L257.442 42.2763C256.206 41.764 255.269 41.0745 254.59 40.2253L253.809 40.85L253.028 41.4747C253.949 42.6255 255.178 43.5026 256.676 44.1237L257.059 43.2ZM253.809 40.85L254.59 40.2253C253.961 39.4395 253.609 38.3919 253.609 37H252.609H251.609C251.609 38.7415 252.057 40.2605 253.028 41.4747L253.809 40.85ZM252.609 37H253.609C253.609 34.9535 254.348 33.4675 255.799 32.4074L255.209 31.6L254.619 30.7926C252.603 32.2658 251.609 34.3798 251.609 37H252.609ZM255.209 31.6L255.809 32.4C257.321 31.2662 259.389 30.65 262.109 30.65V29.65V28.65C259.095 28.65 256.564 29.3338 254.609 30.8L255.209 31.6ZM262.109 29.65V30.65C264.724 30.65 266.771 31.2474 268.326 32.3627L268.909 31.55L269.491 30.7373C267.514 29.3193 265.027 28.65 262.109 28.65V29.65ZM268.909 31.55L268.344 32.3749C269.94 33.4689 270.964 34.9443 271.439 36.8425L272.409 36.6L273.379 36.3575C272.787 33.9891 271.477 32.0977 269.474 30.7251L268.909 31.55ZM272.409 36.6L272.138 35.6373L267.338 36.9874L267.609 37.95L267.88 38.9127L272.68 37.5626L272.409 36.6ZM267.609 37.95L268.589 37.7539C268.255 36.08 267.51 34.7413 266.236 33.9504L265.709 34.8L265.181 35.6496C265.84 36.0587 266.363 36.82 266.628 38.1461L267.609 37.95ZM265.709 34.8L266.257 33.9635C265.092 33.2004 263.69 32.85 262.109 32.85V33.85V34.85C263.394 34.85 264.392 35.1329 265.161 35.6365L265.709 34.8ZM262.109 33.85V32.85C260.597 32.85 259.277 33.1357 258.254 33.8179L258.809 34.65L259.363 35.482C259.94 35.0976 260.821 34.85 262.109 34.85V33.85ZM258.809 34.65L258.279 33.802C257.19 34.4823 256.609 35.5174 256.609 36.8H257.609H258.609C258.609 36.216 258.827 35.8177 259.339 35.498L258.809 34.65ZM257.609 36.8H256.609C256.609 38.1013 257.135 39.1826 258.239 39.8542L258.759 39L259.279 38.1458C258.849 37.8841 258.609 37.4987 258.609 36.8H257.609ZM258.759 39L258.255 39.8638C259.193 40.411 260.385 40.7898 261.786 41.035L261.959 40.05L262.131 39.065C260.866 38.8435 259.925 38.5224 259.263 38.1362L258.759 39ZM261.959 40.05L261.79 41.0356L263.54 41.3356L263.709 40.35L263.878 39.3644L262.128 39.0644L261.959 40.05ZM263.709 40.35L263.541 41.3359C265.257 41.6273 266.815 42.0298 268.217 42.5398L268.559 41.6L268.901 40.6602C267.37 40.1035 265.694 39.6727 263.876 39.3641L263.709 40.35ZM268.559 41.6L268.217 42.5398C269.551 43.0247 270.541 43.7007 271.241 44.5402L272.009 43.9L272.777 43.2598C271.81 42.0993 270.5 41.2419 268.901 40.6602L268.559 41.6ZM272.009 43.9L271.253 44.5549C271.925 45.3297 272.309 46.4095 272.309 47.9H273.309H274.309C274.309 46.0571 273.826 44.4703 272.764 43.2451L272.009 43.9ZM273.309 47.9H272.309C272.309 50.0798 271.519 51.6869 269.961 52.8483L270.559 53.65L271.156 54.4517C273.265 52.8797 274.309 50.6536 274.309 47.9H273.309ZM270.559 53.65L269.961 52.8483C268.353 54.0474 266.119 54.7 263.159 54.7V55.7V56.7C266.399 56.7 269.098 55.986 271.156 54.4517L270.559 53.65ZM283.128 53.6L283.689 52.7721L283.128 53.6ZM279.328 47.25L279.095 46.2775L278.19 46.4943L278.342 47.4125L279.328 47.25ZM284.128 46.1L285.11 45.9085L284.91 44.8844L283.895 45.1275L284.128 46.1ZM285.478 49.35L286.262 48.7293V48.7293L285.478 49.35ZM287.828 51.05L287.492 51.9918L287.502 51.9954L287.828 51.05ZM294.678 50.6L294.103 49.7822L294.096 49.7873L294.088 49.7926L294.678 50.6ZM291.078 44.8L291.259 43.8164L291.252 43.8152L291.078 44.8ZM289.378 44.5L289.201 45.4842L289.205 45.4848L289.378 44.5ZM284.828 43.2L284.445 44.1237V44.1237L284.828 43.2ZM281.578 40.85L282.359 40.2253V40.2253L281.578 40.85ZM282.978 31.6L283.568 32.4075L283.578 32.4L282.978 31.6ZM296.678 31.55L296.096 32.3627L296.104 32.3689L296.113 32.3749L296.678 31.55ZM300.178 36.6L300.449 37.5626L301.384 37.2997L301.148 36.3575L300.178 36.6ZM295.378 37.95L294.398 38.1461L294.61 39.205L295.649 38.9127L295.378 37.95ZM293.478 34.8L292.93 35.6365L292.941 35.6432L292.951 35.6496L293.478 34.8ZM286.578 34.65L287.108 35.498L287.121 35.4902L287.133 35.482L286.578 34.65ZM286.528 39L286.008 39.8542L286.016 39.8591L286.024 39.8638L286.528 39ZM289.728 40.05L289.556 41.035L289.559 41.0356L289.728 40.05ZM291.478 40.35L291.309 41.3356L291.311 41.3359L291.478 40.35ZM299.778 43.9L299.01 44.5402L299.016 44.5476L299.023 44.5549L299.778 43.9ZM298.328 53.65L298.926 54.4517V54.4517L298.328 53.65ZM290.928 55.7V54.7C287.944 54.7 285.552 54.0343 283.689 52.7721L283.128 53.6L282.567 54.4279C284.837 55.9657 287.646 56.7 290.928 56.7V55.7ZM283.128 53.6L283.689 52.7721C281.885 51.5496 280.744 49.6945 280.315 47.0875L279.328 47.25L278.342 47.4125C278.846 50.4722 280.239 52.8504 282.567 54.4279L283.128 53.6ZM279.328 47.25L279.561 48.2225L284.361 47.0725L284.128 46.1L283.895 45.1275L279.095 46.2775L279.328 47.25ZM284.128 46.1L283.147 46.2915C283.433 47.7606 283.932 49.0083 284.694 49.9707L285.478 49.35L286.262 48.7293C285.758 48.0917 285.356 47.1727 285.11 45.9085L284.128 46.1ZM285.478 49.35L284.694 49.9707C285.44 50.913 286.377 51.5935 287.492 51.9917L287.828 51.05L288.165 50.1083C287.413 49.8398 286.783 49.387 286.262 48.7293L285.478 49.35ZM287.828 51.05L287.502 51.9954C288.582 52.3675 289.726 52.55 290.928 52.55V51.55V50.55C289.931 50.55 289.008 50.3991 288.154 50.1046L287.828 51.05ZM290.928 51.55V52.55C292.67 52.55 294.162 52.2159 295.268 51.4074L294.678 50.6L294.088 49.7926C293.461 50.2508 292.454 50.55 290.928 50.55V51.55ZM294.678 50.6L295.254 51.4178C296.389 50.6192 297.028 49.5118 297.028 48.15H296.028H295.028C295.028 48.7882 294.768 49.3142 294.103 49.7822L294.678 50.6ZM296.028 48.15H297.028C297.028 46.8091 296.434 45.7311 295.267 45.0775L294.778 45.95L294.29 46.8225C294.789 47.1023 295.028 47.4909 295.028 48.15H296.028ZM294.778 45.95L295.267 45.0775C294.292 44.5316 292.933 44.1239 291.259 43.8165L291.078 44.8L290.898 45.7835C292.49 46.0761 293.598 46.4351 294.29 46.8225L294.778 45.95ZM291.078 44.8L291.252 43.8152L289.552 43.5152L289.378 44.5L289.205 45.4848L290.905 45.7848L291.078 44.8ZM289.378 44.5L289.555 43.5158C287.949 43.2267 286.503 42.8118 285.211 42.2763L284.828 43.2L284.445 44.1237C285.887 44.7215 287.474 45.1733 289.201 45.4842L289.378 44.5ZM284.828 43.2L285.211 42.2763C283.976 41.764 283.039 41.0745 282.359 40.2253L281.578 40.85L280.797 41.4747C281.718 42.6255 282.947 43.5026 284.445 44.1237L284.828 43.2ZM281.578 40.85L282.359 40.2253C281.731 39.4395 281.378 38.3919 281.378 37H280.378H279.378C279.378 38.7415 279.826 40.2605 280.797 41.4747L281.578 40.85ZM280.378 37H281.378C281.378 34.9535 282.118 33.4675 283.568 32.4074L282.978 31.6L282.388 30.7926C280.372 32.2658 279.378 34.3798 279.378 37H280.378ZM282.978 31.6L283.578 32.4C285.09 31.2662 287.158 30.65 289.878 30.65V29.65V28.65C286.865 28.65 284.333 29.3338 282.378 30.8L282.978 31.6ZM289.878 29.65V30.65C292.493 30.65 294.54 31.2474 296.096 32.3627L296.678 31.55L297.261 30.7373C295.283 29.3193 292.797 28.65 289.878 28.65V29.65ZM296.678 31.55L296.113 32.3749C297.71 33.4689 298.734 34.9443 299.208 36.8425L300.178 36.6L301.148 36.3575C300.556 33.9891 299.247 32.0977 297.244 30.7251L296.678 31.55ZM300.178 36.6L299.908 35.6373L295.108 36.9874L295.378 37.95L295.649 38.9127L300.449 37.5626L300.178 36.6ZM295.378 37.95L296.359 37.7539C296.024 36.08 295.28 34.7413 294.006 33.9504L293.478 34.8L292.951 35.6496C293.61 36.0587 294.133 36.82 294.398 38.1461L295.378 37.95ZM293.478 34.8L294.026 33.9635C292.862 33.2004 291.459 32.85 289.878 32.85V33.85V34.85C291.164 34.85 292.162 35.1329 292.93 35.6365L293.478 34.8ZM289.878 33.85V32.85C288.366 32.85 287.047 33.1357 286.024 33.8179L286.578 34.65L287.133 35.482C287.71 35.0976 288.59 34.85 289.878 34.85V33.85ZM286.578 34.65L286.048 33.802C284.96 34.4823 284.378 35.5174 284.378 36.8H285.378H286.378C286.378 36.216 286.597 35.8177 287.108 35.498L286.578 34.65ZM285.378 36.8H284.378C284.378 38.1013 284.905 39.1826 286.008 39.8542L286.528 39L287.048 38.1458C286.618 37.8841 286.378 37.4987 286.378 36.8H285.378ZM286.528 39L286.024 39.8638C286.963 40.411 288.155 40.7898 289.556 41.035L289.728 40.05L289.901 39.065C288.635 38.8435 287.694 38.5224 287.032 38.1362L286.528 39ZM289.728 40.05L289.559 41.0356L291.309 41.3356L291.478 40.35L291.647 39.3644L289.897 39.0644L289.728 40.05ZM291.478 40.35L291.311 41.3359C293.027 41.6273 294.584 42.0298 295.987 42.5398L296.328 41.6L296.67 40.6602C295.139 40.1035 293.463 39.6727 291.646 39.3641L291.478 40.35ZM296.328 41.6L295.987 42.5398C297.32 43.0247 298.311 43.7007 299.01 44.5402L299.778 43.9L300.547 43.2598C299.579 42.0993 298.27 41.2419 296.67 40.6602L296.328 41.6ZM299.778 43.9L299.023 44.5549C299.694 45.3297 300.078 46.4095 300.078 47.9H301.078H302.078C302.078 46.0571 301.596 44.4703 300.534 43.2451L299.778 43.9ZM301.078 47.9H300.078C300.078 50.0798 299.289 51.6869 297.731 52.8483L298.328 53.65L298.926 54.4517C301.035 52.8797 302.078 50.6536 302.078 47.9H301.078ZM298.328 53.65L297.731 52.8483C296.122 54.0474 293.889 54.7 290.928 54.7V55.7V56.7C294.168 56.7 296.868 55.986 298.926 54.4517L298.328 53.65Z" fill="black" mask="url(#path-1-outside-1_6_82)"/>
</svg>
