<svg width="201" height="201" viewBox="0 0 201 201" fill="none" xmlns="http://www.w3.org/2000/svg">
<path d="M0.5 200.5V44.2247C2.05923 18.2432 10.8199 4.75371 28.986 0.5H147.096L137.222 17.504H38.2021C15.6149 20.8444 20.6342 36.3913 18.9321 59.6094C17.2301 82.8275 18.9321 185.115 18.9321 185.115H49.9317L41.5534 200.5H0.5Z" fill="#6FDCEB" stroke="black"/>
<path d="M35.4401 135.5V76.2468C36.9993 50.0541 45.76 36.455 63.9261 32.1667H118.992L109.878 49.3089H73.1422C50.5549 52.6764 55.5742 68.3497 53.8722 91.7566V135.5H35.4401Z" fill="#6FDCEB" stroke="black"/>
<path d="M160.009 60.4999L160.088 119.753C158.563 145.948 149.821 159.561 131.661 163.879L76.5943 163.967L85.6863 146.81L122.422 146.751C145.004 143.348 139.964 127.682 141.635 104.273L141.635 77.1667L160.009 60.4999Z" fill="#6FDCEB" stroke="black"/>
<path d="M200.5 8.19475L200.33 153.56C198.742 177.725 189.967 190.261 171.796 194.192L62.0413 194.037L72.2179 178.235L162.735 176.392C185.326 173.316 180.324 158.848 182.051 137.253C183.778 115.658 182.051 22.4793 182.051 22.4793L151.052 22.4357L159.447 8.13692L200.5 8.19475Z" fill="#6FDCEB" stroke="black"/>
<path d="M109.878 63.8333C121.271 63.8333 121.271 74.1742 121.271 81.5606C121.271 90.4242 127.782 94.8561 132.665 96.3333C127.782 97.8106 121.271 102.242 121.271 111.106C121.271 118.492 121.271 128.833 109.878 128.833" stroke="#6FDCEB" stroke-width="5" stroke-linecap="round" stroke-linejoin="round"/>
<path d="M86.2667 128.982C75.3247 128.887 75.3868 118.549 75.4312 111.164C75.4845 102.303 69.2585 97.8185 64.5779 96.301C69.2762 94.8648 75.5555 90.4885 75.6087 81.6273C75.6531 74.2431 75.7152 63.9051 86.6573 64" stroke="#6FDCEB" stroke-width="5" stroke-linecap="round" stroke-linejoin="round"/>
</svg>
