<svg width="193" height="193" viewBox="0 0 193 193" fill="none" xmlns="http://www.w3.org/2000/svg">
<mask id="path-1-inside-1_5_61" fill="white">
<circle cx="97.1936" cy="99.1936" r="2.49433" transform="rotate(-0.130293 97.1936 99.1936)"/>
</mask>
<path d="M104.688 99.1766C101.355 99.1841 98.0213 99.1917 94.6879 99.1993C94.7703 98.9473 94.8938 98.7052 95.0471 98.5025C95.6653 97.673 96.6771 97.5909 97.1907 97.9379C97.8985 98.3755 97.6468 99.2208 97.1993 99.1936C96.7457 99.2342 96.4964 98.3837 97.1908 97.9493C97.6997 97.5942 98.7106 97.6848 99.3271 98.4949C99.4794 98.6921 99.6041 98.9264 99.6879 99.1879C99.7708 98.9263 99.8127 98.6388 99.8023 98.3394C99.788 97.1423 98.7826 95.7685 97.1851 95.4493C95.2221 94.9563 92.5822 96.5073 92.1993 99.205C91.6932 101.835 93.843 105.071 97.2078 105.438C99.828 105.811 102.849 104.256 104.089 101.416C104.403 100.716 104.607 99.9518 104.688 99.1766ZM94.6879 99.1993L104.688 99.1766L99.6879 99.1879L94.6879 99.1993Z" fill="#6FDCEB" mask="url(#path-1-inside-1_5_61)"/>
<mask id="path-3-inside-2_5_61" fill="white">
<circle cx="97.1839" cy="97.184" r="14.966" transform="rotate(166.884 97.1839 97.184)"/>
</mask>
<path d="M77.7388 101.715C80.9852 100.958 84.2316 100.202 87.4779 99.4455C87.157 98.4359 86.9935 97.3823 87.0011 96.3126C86.9705 92.0139 90.0708 87.6025 94.6387 86.2606C100.284 84.3284 107.532 87.9226 109.325 94.3551C111.422 100.647 107.382 108.613 100.296 110.542C94.7692 112.273 88.0293 109.978 84.582 104.791C83.714 103.515 83.0452 102.09 82.6084 100.58C82.8828 102.128 83.4013 103.642 84.1539 105.05C87.1013 110.748 94.1243 114.296 100.864 112.977C109.394 111.666 116.092 102.368 114.194 93.2205C112.746 84.0373 102.731 76.8927 92.9368 78.9562C85.1532 80.3004 78.4908 87.2139 77.5355 95.5055C77.2757 97.5598 77.3463 99.6674 77.7388 101.715ZM87.4779 99.4455L77.7388 101.715L82.6084 100.58L87.4779 99.4455Z" fill="#6FDCEB" mask="url(#path-3-inside-2_5_61)"/>
<mask id="path-5-inside-3_5_61" fill="white">
<circle cx="96.6743" cy="96.6745" r="29.932" transform="rotate(-5.18847 96.6743 96.6745)"/>
</mask>
<path d="M131.463 93.5155C128.144 93.8169 124.824 94.1184 121.504 94.4198C121.825 97.0272 121.74 99.6748 121.237 102.262C119.348 112.695 110.053 121.572 99.042 122.749C85.2626 124.798 70.7706 113.73 69.3547 99.1552C67.2309 84.7126 78.8399 69.5717 94.0806 68.11C106.079 66.4932 118.85 73.5395 123.966 84.983C125.267 87.8077 126.118 90.8486 126.484 93.9676C126.284 90.8338 125.594 87.7253 124.425 84.7862C119.876 72.9041 106.997 64.5791 93.8545 65.6202C77.2684 66.27 62.8432 82.3634 64.3752 99.6074C65.0708 116.859 81.8132 131.825 99.7203 130.218C113.917 129.482 127.085 118.619 130.501 104.367C131.389 100.839 131.712 97.1605 131.463 93.5155ZM121.504 94.4198L131.463 93.5155L126.484 93.9676L121.504 94.4198Z" fill="#6FDCEB" mask="url(#path-5-inside-3_5_61)"/>
<mask id="path-7-inside-4_5_61" fill="white">
<circle cx="96.6936" cy="96.6936" r="44.898" transform="rotate(142.109 96.6936 96.6936)"/>
</mask>
<path d="M57.3152 127.339C59.9458 125.292 62.5763 123.245 65.2069 121.197C62.5636 117.939 60.4364 114.278 58.9287 110.356C52.6632 94.6462 57.7479 74.9681 71.4221 64.2204C88.0824 50.0026 116.344 52.7445 130.153 70.6543C144.792 87.8322 141.946 116.933 123.501 131.14C109.348 142.938 87.3214 144.139 71.6507 133.672C67.7315 131.119 64.2175 127.934 61.261 124.268C64.0858 128.036 67.5007 131.365 71.3702 134.086C86.8018 145.228 109.61 145.044 125.036 133.113C145.052 118.862 149.754 87.4385 134.099 67.5835C119.45 47.0319 87.1884 42.2257 66.8159 58.3016C50.2229 70.3988 42.9525 93.8415 49.9961 113.589C51.6874 118.512 54.172 123.168 57.3152 127.339ZM65.2069 121.197L57.3152 127.339L61.261 124.268L65.2069 121.197Z" fill="#6FDCEB" mask="url(#path-7-inside-4_5_61)"/>
<mask id="path-9-inside-5_5_61" fill="white">
<circle cx="96.6551" cy="96.6552" r="59.864" transform="rotate(-88.7475 96.6551 96.6552)"/>
</mask>
<path d="M98.073 31.8067C98.0001 35.1392 97.9273 38.4718 97.8544 41.8043C103.62 41.8452 109.361 42.7848 114.836 44.609C136.958 51.6766 153.284 74.1761 152.756 97.8818C153.285 127.752 125.974 154.97 95.4012 154.006C64.8633 154.535 37.0618 126.614 38.0551 95.374C37.884 70.63 55.3945 46.8472 79.4709 39.5548C85.426 37.6748 91.685 36.7493 97.9637 36.8055C91.6889 36.5827 85.3808 37.3403 79.3269 39.0759C54.8781 45.757 36.085 69.5034 35.5557 95.3193C33.6047 127.805 62.0367 158.631 95.2919 159.004C128.444 160.985 159.881 131.968 160.254 98.0458C161.578 71.2244 143.712 44.6533 117.966 35.6398C111.601 33.3269 104.861 32.0358 98.073 31.8067ZM97.8544 41.8043L98.073 31.8067L97.9637 36.8055L97.8544 41.8043Z" fill="#6FDCEB" mask="url(#path-9-inside-5_5_61)"/>
<mask id="path-11-inside-6_5_61" fill="white">
<circle cx="96.3468" cy="96.3468" r="75" transform="rotate(19.8697 96.3468 96.3468)"/>
</mask>
<path d="M171.584 123.537C168.449 122.404 165.314 121.272 162.18 120.139C159.761 127.082 156.267 133.629 151.817 139.486C134.198 163.28 100.406 173.685 72.1302 163.355C36.0047 151.765 14.5644 107.887 28.1629 71.7053C39.9662 34.9474 84.6095 13.1483 121.413 26.9873C150.96 36.808 172.137 67.2622 171.077 98.7843C170.906 106.613 169.48 114.413 166.882 121.838C169.636 114.47 171.238 106.677 171.577 98.8007C173.335 67.1209 152.602 35.4627 122.263 24.6361C84.5842 9.49173 36.9865 30.9609 23.4606 70.0059C8.07571 108.307 29.9037 156.67 69.5811 170.409C100.555 182.487 138.698 171.923 159.317 145.316C164.515 138.771 168.661 131.391 171.584 123.537ZM162.18 120.139L171.584 123.537L166.882 121.838L162.18 120.139Z" fill="#6FDCEB" mask="url(#path-11-inside-6_5_61)"/>
</svg>
